# xmcd
#
# Track frame offsets:
#	150
#	20297
#	37780
#	53222
#	70015
#	91065
#	110572
#	124485
#	140807
#	164355
#	191775
#	209110
#	228042
#	245270
#
# Disc length: 3494 seconds
#
# Revision: 1
# Processed by: cddbd v1.4PL0 Copyright (c) Steve Scherf et al.
# Submitted via: audiograbber 1.81.01
#
DISCID=c20da40e
DTITLE=Red Rooster - Bluesin' Up
DYEAR=1995
DGENRE=Blues
TTITLE0=Bluesin' Up
TTITLE1=Little Darling
TTITLE2=Baby's Shuffle
TTITLE3=Talkin' To My Baby
TTITLE4=Running Around
TTITLE5=Strange Kind Of Feeling
TTITLE6=Black Suit
TTITLE7=Carey's Shuffle
TTITLE8=Superstition
TTITLE9=Crazy Bout You
TTITLE10=Married To The Blues
TTITLE11=I Want You To Know
TTITLE12=Your Love Sets Me Free
TTITLE13=Red Two
EXTD=
EXTT0=
EXTT1=
EXTT2=
EXTT3=
EXTT4=
EXTT5=
EXTT6=
EXTT7=
EXTT8=
EXTT9=
EXTT10=
EXTT11=
EXTT12=
EXTT13=
PLAYORDER=
